<?xml version="1.0" encoding="utf-8"?>
<!-- Generator: Adobe Illustrator 26.0.0, SVG Export Plug-In . SVG Version: 6.00 Build 0)  -->
<svg version="1.1" id="Layer_1" xmlns="http://www.w3.org/2000/svg" xmlns:xlink="http://www.w3.org/1999/xlink" x="0px" y="0px"
	 viewBox="0 0 349.9 100.4" style="enable-background:new 0 0 349.9 100.4;" xml:space="preserve">
<style type="text/css">
	.st0{fill:#63B1DC;}
	.st1{fill:#6AB4DE;}
	.st2{fill:#4280A3;}
	.st3{fill:#A3D1EA;}
	.st4{font-family:'Calibri-Bold';}
	.st5{font-size:8.5294px;}
	.st6{fill:#DAECF6;}
	.st7{fill:#779FB8;}
	.st8{fill:#E8FDF8;}
</style>
<g>
	<path class="st0" d="M50.3,10.5c12.7-1.3,21.9,3.4,30,10.8c3.2,2.9,5.6,6.4,7.6,10.3c1,1.9,0.4,2.8-0.9,3.7
		c-4.9,3.7-9.7,7.5-14.6,11.2c-1.2,0.9-2.4,1.8-3.5,2.7c-1.5,1.2-2.5,1-3.2-0.8c-2.7-6.3-5.5-12.5-8.3-18.8
		c-1.4-3.1-2.8-6.2-4.2-9.4c-0.4-0.9-0.9-1.8-2.1-1.7c-1.1,0.1-1.6,1-2,1.9c-4.2,9.4-8.4,18.7-12.5,28.2c-0.9,2.2-1.8,2.1-3.4,0.8
		c-5.8-4.7-11.6-9.3-17.5-13.9c-1.2-0.9-1.3-1.8-0.7-2.9c6-11.6,15.4-19,28-22.1C45.7,10,48.7,10.5,50.3,10.5z"/>
	<path class="st1" d="M51.4,80.2c-8.5,0-17.1-0.1-25.6,0.1c-2.4,0-4-0.8-5.4-2.6c-5.9-7.8-10.4-16.2-9.7-26.5
		c0.2-2.6,0.1-5.3,0.1-7.9c0-0.9,0-1.9,1.1-2.1c1.3-0.3,1.3,0.9,1.6,1.6c3.6,9.2,7.1,18.5,10.7,27.8c1.6,4.2,2.1,4.6,6.5,4.6
		c13.5,0,27.1-0.1,40.6,0c2.8,0,4.3-1,5.3-3.6c3.7-10,7.7-20,11.6-29.9c0.3-0.8,0.3-2.2,1.5-2.2c1.4,0.1,1.2,1.6,1.4,2.5
		c2.7,13.2-0.4,25-8.8,35.4c-1.8,2.2-3.7,3-6.5,2.9C67.7,80.1,59.5,80.2,51.4,80.2z"/>
	<path class="st1" d="M118,80.6c-2.9,0.1-4.8-1.3-6.6-3.4c-2.3-2.7-5-5.1-7.5-7.6c0-0.8-0.4-1.3-1.1-1.5c-0.5-2.5,1.2-2.2,2.7-2.2
		c18.3,0,36.6,0,54.8,0c56.2,0,112.5,0,168.7,0c1.1,0,2.3,0.1,3.4-0.4c1.4-0.3,1-1.5,1-2.4c0-7.9,0-15.7,0-23.6h0c0.7,0,1.3,0,2,0.1
		c0,9.5,0,18.9,0,28.4c-28.9-0.2-57.8,0.4-86.7-0.4c-6.2-0.2-12.4-0.1-18.6,0c-10.4,0-20.8,0.3-31.2,0.2c-5.8,0-11.7,0.3-17.5-0.1
		c-8.1-0.6-16.2,0.1-24.3-0.1c-9.6-0.2-19.3,0.3-28.9,0.2c-6.4-0.1-12.8,0.9-19.2,0.3c-0.6-0.1-1.6-0.3-1.8,0.6
		c-0.3,1,0.4,1.4,1.3,1.6c0.4,0.4,0.8,0.8,1.1,1.1c2,2.9,4.3,5.5,7.5,7.2c0.3,0.1,0.6,0.1,1,0.2C118,79.3,118,80,118,80.6z"/>
	<path class="st2" d="M51.5,82.8c7.2,0,14.4,0,21.6,0c0.7,0,1.8-0.5,2,0.6c0.2,0.9-0.8,1.2-1.5,1.7c-6.5,4.2-13.5,6.1-21.4,6.1
		c-8-0.1-15.6-0.9-22.3-5.5c-0.6-0.4-1.2-0.8-1.7-1.2c-0.4-0.3-0.7-0.7-0.5-1.1c0.2-0.5,0.7-0.5,1.1-0.5c2.3,0,4.6,0,6.8,0
		C40.9,82.8,46.2,82.8,51.5,82.8C51.5,82.8,51.5,82.8,51.5,82.8z"/>
	<path class="st2" d="M161.6,51.3c0-3.2,0-6.3,0-9.5c0-1.1-0.1-2.3,1.2-2.6c1.3-0.4,2.4,0.2,3.2,1.3c1.9,2.4,3.7,4.9,5.6,7.4
		c1.7,2.2,3.3,4.3,5,6.5c0.4,0.5,0.7,1.1,1.4,0.9c0.8-0.3,0.7-1,0.7-1.6c0-3.8,0-7.6,0-11.3c0-1.5,0-3.1,2-3c2,0,1.8,1.7,1.8,3.1
		c0,6.1,0,12.1,0,18.2c0,1.1,0.2,2.4-1.3,2.8c-1.3,0.3-2.3,0-3.2-1.2c-3.5-4.7-7.1-9.4-10.7-14c-0.4-0.6-0.7-1.7-1.7-1.3
		c-0.9,0.4-0.6,1.4-0.6,2.1c0,4,0,7.9,0,11.9c0,1.3-0.1,2.6-1.8,2.6c-2,0.1-1.6-1.5-1.6-2.6C161.6,57.6,161.6,54.4,161.6,51.3z"/>
	<path class="st3" d="M118,80.6c0-0.6,0-1.2,0-1.8c0.9-0.1,1.7-0.2,2.6-0.2c44.3,0,88.6,0,132.9,0c1.2,0,3.5-0.8,3.5,1
		c0,1.8-2.3,1-3.5,1c-44.3,0-88.6,0-132.9,0C119.7,80.7,118.8,80.6,118,80.6z"/>
	<path class="st2" d="M289.5,51.4c0-3.2,0-6.3,0-9.5c0-2.1,0.6-3.1,2.9-3c3.1,0.3,6.1-0.2,9.2,0.4c5.7,1.1,8.7,4.6,8.8,10.4
		c0,2,0.1,4-0.5,6c-1.5,4.5-5,7.3-9.7,7.6c-2.8,0.2-5.6,0-8.4,0.1c-1.6,0-2.2-0.7-2.2-2.2C289.5,57.9,289.5,54.7,289.5,51.4z
		 M293.1,51.4c0,0.9,0,1.8,0,2.6c0,6.5,0,6.5,6.5,6.2c3.1-0.1,5.5-1.6,6.4-4.6c2-6.5,1.2-13.8-8.8-13.5c-0.5,0-1.1,0-1.6,0
		c-1.8-0.2-2.6,0.6-2.5,2.4C293.2,46.8,293.1,49.1,293.1,51.4z"/>
	<path class="st2" d="M273.8,63.5c-7.9,0-11.6-4.1-12-12.1c-0.4-8,5-12.7,11.9-12.6c8,0.1,12.2,4.4,12.2,12.6
		C285.9,59.3,281.6,63.5,273.8,63.5z M282.2,51c-0.1-6.1-2.9-9-8.9-8.9c-5.1,0.1-7.9,3.2-7.9,9.1c0,6,3.1,9.4,8.6,9.3
		C279.3,60.5,282.3,57,282.2,51z"/>
	<path class="st2" d="M314.4,51.2c0-3.1,0-6.2,0-9.2c0-1.9,0.6-3,2.7-2.9c3.8,0.1,7.6,0,11.3,0c1.1,0,1.9,0.3,1.9,1.6
		c0.1,1.4-0.7,1.8-2,1.8c-2.6,0-5.1,0.1-7.7,0c-2.8-0.1-2.5,1.8-2.5,3.5c0,1.8-0.3,3.7,2.5,3.6c2.4-0.1,4.7,0,7.1,0
		c1.2,0,2.1,0.2,2.1,1.7c0,1.4-0.8,1.8-2,1.7c-2.4-0.1-4.8,0-7.1,0c-1.8-0.1-2.6,0.7-2.5,2.5c0,0.7,0.1,1.4,0,2.1
		c-0.3,2.1,0.6,2.8,2.7,2.7c2.5-0.1,5.1,0,7.7,0c1.2,0,2.2,0.2,2.2,1.7c0,1.4-1,1.7-2.2,1.7c-4,0-7.9,0-11.9,0c-1.8,0-2.3-1-2.3-2.5
		C314.4,57.7,314.4,54.4,314.4,51.2z"/>
	<path class="st2" d="M217.2,63.6c-2.5-0.2-4.5-0.1-6.5-0.8c-1-0.4-1.6-1.1-1.4-2.2c0.3-1.4,1.4-1.1,2.3-0.9
		c2.7,0.7,5.4,0.6,8.1,0.4c2.3-0.1,3.8-1.8,3.6-4c-0.2-2.3-1.8-3-3.8-3.1c-1.6-0.1-3.2,0-4.7-0.1c-3.3-0.2-5.7-2.4-6.2-5.4
		c-0.6-3.4,0.8-6.1,4-7.5c4.1-1.7,8.3-1.2,12.4-0.3c1.3,0.3,1.5,1.4,1.3,2.6c-0.3,1.6-1.3,0.9-2.2,0.7c-2.9-0.5-5.7-0.9-8.6-0.3
		c-2.3,0.5-3.1,1.8-3,3.9c0.1,2.1,1.6,2.7,3.5,2.8c1.8,0.1,3.5,0,5.2,0.3c4.2,0.8,5.9,2.6,5.9,6.6c0,3.8-2.3,6.4-6.1,7
		C219.5,63.5,218.1,63.5,217.2,63.6z"/>
	<path class="st2" d="M206.2,57.2c0,5.5-0.6,6.1-6.1,6.3c-12.3,0.6-16-9.2-13-17.8c1.5-4.2,5.1-6.1,9.3-6.7c2.6-0.3,5.3-0.1,7.8,0.5
		c1.3,0.3,2.1,1.1,1.8,2.4c-0.3,1.4-1.5,1-2.4,0.9c-1.7-0.2-3.3-0.5-5-0.5c-5.9,0.1-9,3.3-8.8,9.1c0.2,6,4.2,9.6,9.9,8.8
		c1.5-0.2,2.2-0.8,2.1-2.4c-0.1-1.1,0-2.3,0-3.4c0-1.6,0.6-2.5,2.3-2.5c1.7,0,2.1,0.9,2,2.4C206.2,55.3,206.2,56.3,206.2,57.2z"/>
	<path class="st2" d="M251.4,60.1c1.5,0,3,0,4.4-0.4c0.9-0.2,1.8-0.6,2.1,0.7c0.3,1-0.1,1.7-1,2.2c-6.2,3.6-16.4-0.4-18.2-7.3
		c-1.3-4.9-1.3-10,3.1-13.6c4.4-3.7,9.6-3.4,14.8-2c1.1,0.3,1.5,1.1,1.4,2.2c-0.2,1.4-1.3,1-2.1,0.9c-2-0.2-4-0.6-6-0.5
		c-5.9,0.4-8.4,3.8-7.9,9.9C242.6,58.1,245.4,60.2,251.4,60.1z"/>
	<path class="st2" d="M109.7,39c1.8,0,3.5,0,5.3,0c2.5,0,3.5,1.3,2.5,3.5c-3,6.6-6.2,13.2-9.4,19.7c-0.7,1.4-2.1,1.5-3.2,0.9
		c-1.4-0.7-0.4-1.8,0-2.7c2.6-5.3,5.1-10.6,7.8-15.8c0.8-1.6,0.5-2.3-1.3-2.3c-2.5,0-4.9,0-7.4,0c-1.1,0-2.5,0.2-2.5-1.5
		c0-1.7,1.3-1.8,2.6-1.8C106,39,107.8,39,109.7,39z"/>
	<path class="st2" d="M147.2,63.3c-1.5,0.1-2.4-0.1-3.3-1.2c-2.5-3.1-5.1-6-7.7-9c-1.5-1.7-1.5-3.2,0.1-4.8c2.6-2.6,5-5.4,7.6-8.1
		c0.4-0.4,0.7-0.8,1.2-1c1.1-0.4,2.6-0.9,3.4,0.2c0.8,1.1-0.5,1.9-1.3,2.5c-2.6,2.1-4.5,4.9-7,7.1c-1.1,1-1,1.8,0,2.9
		c2.6,2.8,5.1,5.8,7.7,8.7c0.5,0.6,1.2,1.2,0.8,2.1C148.4,63.7,147.5,63.3,147.2,63.3z"/>
	<path class="st2" d="M152.7,51.3c0-3.2,0-6.5,0-9.7c0-1.4,0.3-2.5,1.9-2.5c1.8,0,1.9,1.2,1.9,2.5c0,6.4,0,12.8,0,19.2
		c0,1.4-0.2,2.6-2.1,2.6c-1.9,0-1.7-1.4-1.7-2.6C152.7,57.6,152.7,54.5,152.7,51.3z"/>
	<path class="st2" d="M129,51.1c0-3.1,0-6.1,0-9.2c0-1.5,0.2-2.7,2-2.7c1.7,0,1.9,1.3,1.9,2.6c0,6.4,0,12.8,0,19.2
		c0,1.3-0.2,2.5-2,2.5c-1.7,0-1.9-1.2-1.9-2.6C129,57.6,129,54.3,129,51.1z"/>
</g>
<polygon class="st1" points="102.7,68 103.8,69.6 104.5,68.8 "/>
<polygon class="st1" points="108.5,70.4 107,69.6 107,68.5 "/>
<path class="st2" d="M17.9,45.6l9.8,26c0.1,0.1,0.2,0.3,0.3,0.3l1.5,0.9c0.1,0.1,0.2,0.1,0.4,0.1l43.5-0.3c0.3,0,0.5-0.2,0.7-0.4
	l10.5-26.9c0.3-0.7-0.5-1.2-1.1-0.8L67.2,56.8c-0.4,0.3-0.9,0.1-1.1-0.3L51.9,25.9c-0.3-0.5-1-0.5-1.3,0l-13.2,30
	c-0.2,0.4-0.7,0.5-1,0.3L18.9,44.8c-0.1-0.1-0.2-0.1-0.4-0.1h0C18.1,44.7,17.7,45.2,17.9,45.6z"/>
<text transform="matrix(1 0 0 1 124.4343 75.9053)" class="st3 st4 st5">S O F T W A R E </text>
<text transform="matrix(1 0 0 1 188.3801 75.9053)" class="st3 st4 st5">S O L U T I O N S</text>
<polygon class="st6" points="40.7,51.7 55.4,51.7 40.7,70.9 40.7,68.8 52.7,53.2 41.1,53.3 "/>
<polygon class="st7" points="56.1,51.7 58.5,51.7 43.3,72.2 40.8,72.2 "/>
<polygon class="st8" points="60.2,51.3 44.4,72.2 46.7,72.2 50.8,66.4 61.8,72.2 61.8,70.5 53.1,64.8 61.8,52.3 "/>
</svg>
